<svg width="72" height="80" viewBox="0 0 72 80" fill="none" xmlns="http://www.w3.org/2000/svg">
<path d="M69.1387 20.203C69.0649 20.203 68.9543 20.203 68.8437 20.203C49.3412 18.249 29.8755 17.5117 10.594 19.4656L3.07314 20.203C1.52473 20.3504 0.160657 19.2444 0.0131898 17.696C-0.134278 16.1476 0.971729 14.8204 2.48327 14.6729L10.0041 13.9356C29.6174 11.9448 49.4886 12.719 69.3967 14.6729C70.9083 14.8204 72.0143 16.1845 71.8668 17.696C71.7562 19.1338 70.5396 20.203 69.1387 20.203Z" fill="#292D32"/>
<path d="M23.059 16.4795C22.9115 16.4795 22.764 16.4795 22.5797 16.4426C21.105 16.1846 20.0727 14.7467 20.3308 13.2721L21.1419 8.44251C21.7317 4.90329 22.5428 0 31.1326 0H40.7918C49.4186 0 50.2297 5.08763 50.7827 8.47938L51.5938 13.2721C51.8518 14.7836 50.8196 16.2214 49.3449 16.4426C47.8333 16.7007 46.3955 15.6684 46.1743 14.1937L45.3633 9.40105C44.8471 6.19363 44.7365 5.5669 40.8286 5.5669H31.1695C27.2618 5.5669 27.188 6.08303 26.635 9.36418L25.7871 14.1569C25.5659 15.5209 24.3862 16.4795 23.059 16.4795Z" fill="#292D32"/>
<path d="M47.7953 79.2641H24.1267C11.2602 79.2641 10.7441 72.1488 10.3385 66.3976L7.94218 29.2725C7.83158 27.761 9.01132 26.4338 10.5229 26.3232C12.0713 26.2495 13.3616 27.3924 13.4722 28.9039L15.8686 66.0289C16.2741 71.6327 16.4216 73.7341 24.1267 73.7341H47.7953C55.5373 73.7341 55.6848 71.6327 56.0535 66.0289L58.4498 28.9039C58.5604 27.3924 59.8876 26.2495 61.3992 26.3232C62.9107 26.4338 64.0905 27.7241 63.9799 29.2725L61.5835 66.3976C61.178 72.1488 60.6618 79.2641 47.7953 79.2641Z" fill="#292D32"/>
<path d="M42.0798 58.987H29.8032C28.2916 58.987 27.0381 57.7335 27.0381 56.222C27.0381 54.7104 28.2916 53.4569 29.8032 53.4569H42.0798C43.5914 53.4569 44.8449 54.7104 44.8449 56.222C44.8449 57.7335 43.5914 58.987 42.0798 58.987Z" fill="#292D32"/>
<path d="M45.1763 44.2402H26.7429C25.2313 44.2402 23.9779 42.9868 23.9779 41.4752C23.9779 39.9637 25.2313 38.7102 26.7429 38.7102H45.1763C46.6879 38.7102 47.9413 39.9637 47.9413 41.4752C47.9413 42.9868 46.6879 44.2402 45.1763 44.2402Z" fill="#292D32"/>
</svg>
