<svg width="72" height="79" viewBox="0 0 72 79" fill="none" xmlns="http://www.w3.org/2000/svg">
<path d="M12.1274 66.6966C9.87885 66.6966 7.77774 65.9222 6.26642 64.4846C4.34962 62.6784 3.42808 59.9506 3.75983 57.0017L5.12371 45.0585C5.38174 42.81 6.74562 39.8242 8.33066 38.2023L38.594 6.16981C46.1506 -1.82915 54.039 -2.05031 62.038 5.5063C70.0369 13.0629 70.2581 20.9513 62.7015 28.9502L32.4381 60.9827C30.89 62.6415 28.0147 64.1897 25.7662 64.5587L13.8968 66.5857C13.2701 66.6225 12.7172 66.6966 12.1274 66.6966ZM50.4266 5.46944C47.5882 5.46944 45.1185 7.2388 42.6119 9.89283L12.3486 41.9625C11.6113 42.7366 10.7635 44.5797 10.6161 45.6487L9.2522 57.5915C9.10476 58.8079 9.39965 59.8032 10.0632 60.4298C10.7267 61.0565 11.7219 61.2776 12.9384 61.0933L24.8078 59.0663C25.8768 58.882 27.6461 57.9232 28.3833 57.1491L58.6467 25.1166C63.2175 20.2509 64.8763 15.7538 58.2044 9.48735C55.2554 6.64901 52.712 5.46944 50.4266 5.46944Z" fill="#292D32"/>
<path d="M55.6256 35.1052C55.5518 35.1052 55.4413 35.1052 55.3675 35.1052C43.8667 33.9625 34.6145 25.2265 32.8451 13.7994C32.624 12.2881 33.6561 10.8874 35.1674 10.6293C36.6787 10.4082 38.0795 11.4403 38.3375 12.9516C39.7382 21.8721 46.9631 28.7283 55.9573 29.613C57.4686 29.7605 58.5745 31.1243 58.427 32.6355C58.2427 34.0362 57.0263 35.1052 55.6256 35.1052Z" fill="#292D32"/>
<path d="M69.1154 78.6025H2.76462C1.25329 78.6025 0 77.3493 0 75.8379C0 74.3266 1.25329 73.0733 2.76462 73.0733H69.1154C70.6267 73.0733 71.88 74.3266 71.88 75.8379C71.88 77.3493 70.6267 78.6025 69.1154 78.6025Z" fill="#292D32"/>
</svg>
