<svg width="72" height="72" viewBox="0 0 72 72" fill="none" xmlns="http://www.w3.org/2000/svg">
<path d="M62.8168 59.9416H53.8474V53.6912H62.817C64.3704 53.6912 65.6297 52.4319 65.6297 50.8784V26.9861C65.6297 25.4327 64.3704 24.1734 62.817 24.1734H9.06318C7.50976 24.1734 6.25046 25.4327 6.25046 26.9861V50.866C6.25046 52.4194 7.50976 53.6787 9.06318 53.6787H18.0324V59.9291H9.06318C4.0577 59.9291 0 55.8715 0 50.866V50.8363V50.8379V27.0112V26.9705C0 21.9651 4.0577 17.9074 9.06311 17.9074H62.8168C67.8223 17.9074 71.88 21.9651 71.88 26.9705V27.0133V27.0112V50.8784C71.88 55.8838 67.8223 59.9415 62.8169 59.9415H62.8168L62.8168 59.9416ZM14.9073 41.7528H56.9414V71.8799H14.9073V41.7528ZM50.691 48.0033H21.1578V65.6295H50.691V48.0033ZM14.9073 0H56.9414V24.1579H14.9073V0ZM50.691 6.25039H21.1578V17.9074H50.691V6.25039ZM59.8166 48.0032H12.0634V41.7529H59.8166V48.0032ZM59.8166 36.0962H53.8474V29.8457H59.8166V36.0962ZM44.8781 59.9415H27.002V53.6911H44.8781V59.9415Z" fill="black"/>
</svg>
