<svg width="72" height="69" viewBox="0 0 72 69" fill="none" xmlns="http://www.w3.org/2000/svg">
<path d="M35.9066 46.555C28.9925 46.555 23.381 40.9435 23.381 34.0294C23.381 27.1153 28.9925 21.5038 35.9066 21.5038C42.8207 21.5038 48.4322 27.1153 48.4322 34.0294C48.4322 40.9435 42.8207 46.555 35.9066 46.555ZM35.9066 26.5141C31.7648 26.5141 28.3913 29.8876 28.3913 34.0294C28.3913 38.1712 31.7648 41.5447 35.9066 41.5447C40.0484 41.5447 43.4219 38.1712 43.4219 34.0294C43.4219 29.8876 40.0484 26.5141 35.9066 26.5141Z" fill="#292D32"/>
<path d="M46.6285 68.0648C45.927 68.0648 45.2256 67.9646 44.5242 67.7976C42.4533 67.2298 40.7164 65.9271 39.6142 64.0901L39.2133 63.422C37.2427 60.0151 34.5371 60.0151 32.5664 63.422L32.199 64.0567C31.0968 65.9271 29.3599 67.2632 27.289 67.7976C25.1847 68.3655 23.0136 68.0648 21.1765 66.9626L15.4315 63.6558C13.394 62.4868 11.9243 60.5829 11.2897 58.2782C10.6885 55.9735 10.9891 53.602 12.1581 51.5645C13.1268 49.861 13.394 48.3246 12.8262 47.3559C12.2583 46.3873 10.8221 45.8195 8.85139 45.8195C3.97478 45.8195 0 41.8447 0 36.9681V31.0894C0 26.2128 3.97478 22.238 8.85139 22.238C10.8221 22.238 12.2583 21.6702 12.8262 20.7015C13.394 19.7329 13.1602 18.1964 12.1581 16.4929C10.9891 14.4555 10.6885 12.0505 11.2897 9.77924C11.8909 7.47454 13.3606 5.57066 15.4315 4.4016L21.2099 1.09486C24.9843 -1.14304 29.9611 0.159614 32.2324 4.00078L32.6333 4.66881C34.6039 8.07577 37.3095 8.07577 39.2801 4.66881L39.6476 4.03419C41.9189 0.159614 46.8957 -1.14304 50.7035 1.12826L56.4485 4.435C58.486 5.60406 59.9557 7.50794 60.5903 9.81264C61.1915 12.1173 60.8909 14.4889 59.7219 16.5263C58.7532 18.2298 58.486 19.7663 59.0538 20.7349C59.6217 21.7036 61.0579 22.2714 63.0286 22.2714C67.9052 22.2714 71.88 26.2462 71.88 31.1228V37.0015C71.88 41.8781 67.9052 45.8528 63.0286 45.8528C61.0579 45.8528 59.6217 46.4207 59.0538 47.3893C58.486 48.358 58.7198 49.8944 59.7219 51.5979C60.8909 53.6354 61.2249 56.0403 60.5903 58.3116C59.9891 60.6163 58.5194 62.5202 56.4485 63.6892L50.6701 66.996C49.4008 67.6974 48.0313 68.0648 46.6285 68.0648ZM35.9066 55.7063C38.8793 55.7063 41.6517 57.5768 43.5555 60.8835L43.923 61.5181C44.3238 62.2196 44.9918 62.7206 45.7934 62.921C46.5951 63.1214 47.3967 63.0212 48.0647 62.6204L53.8432 59.2802C54.7116 58.7792 55.3797 57.9442 55.6469 56.9421C55.9141 55.9401 55.7805 54.9047 55.2795 54.0362C53.3756 50.7629 53.1418 47.3893 54.6114 44.8174C56.0811 42.2455 59.1206 40.7758 62.9284 40.7758C65.0661 40.7758 66.7696 39.0723 66.7696 36.9347V31.056C66.7696 28.9517 65.0661 27.2148 62.9284 27.2148C59.1206 27.2148 56.0811 25.7452 54.6114 23.1732C53.1418 20.6013 53.3756 17.2278 55.2795 13.9544C55.7805 13.086 55.9141 12.0505 55.6469 11.0485C55.3797 10.0465 54.745 9.24482 53.8766 8.71039L48.0981 5.40365C46.6619 4.53521 44.758 5.03623 43.8896 6.5059L43.5221 7.14052C41.6182 10.4473 38.8459 12.3178 35.8732 12.3178C32.9005 12.3178 30.1281 10.4473 28.2243 7.14052L27.8568 6.47249C27.0218 5.06963 25.1513 4.56861 23.7151 5.40365L17.9366 8.7438C17.0682 9.24482 16.4001 10.0799 16.1329 11.0819C15.8657 12.0839 15.9993 13.1194 16.5003 13.9878C18.4042 17.2612 18.638 20.6347 17.1684 23.2066C15.6987 25.7786 12.6592 27.2482 8.85139 27.2482C6.7137 27.2482 5.01022 28.9517 5.01022 31.0894V36.9681C5.01022 39.0723 6.7137 40.8092 8.85139 40.8092C12.6592 40.8092 15.6987 42.2789 17.1684 44.8508C18.638 47.4227 18.4042 50.7963 16.5003 54.0696C15.9993 54.9381 15.8657 55.9735 16.1329 56.9755C16.4001 57.9776 17.0348 58.7792 17.9032 59.3136L23.6817 62.6204C24.3831 63.0546 25.2181 63.1548 25.9864 62.9544C26.788 62.754 27.456 62.2196 27.8902 61.5181L28.2577 60.8835C30.1615 57.6102 32.9339 55.7063 35.9066 55.7063Z" fill="#292D32"/>
</svg>
